<svg width="350" height="335" viewBox="0 0 350 335" fill="none" xmlns="http://www.w3.org/2000/svg">
<g clip-path="url(#clip0_119_654)">
<path opacity="0.95" d="M-120 -50C210 80 450 155 168 164.15C130 244.55 150 284.75 430 425" pathLength="1" stroke="#20221F" stroke-width="1.15" stroke-dasharray="1 1"/>
<path opacity="0.95" d="M460 -80C130 90 85 150 171.5 170.85C240 251.25 200 294.8 -80 405" pathLength="1" stroke="#20221F" stroke-width="1.15" stroke-dasharray="1 1"/>
<path opacity="0.65" d="M-110 -50C212 80 444 155 168 164.15C135 244.55 159 284.75 430 425" pathLength="1" stroke="#20221F" stroke-width="1.15" stroke-dasharray="1 1"/>
<path opacity="0.65" d="M450 -80C128 90 91 150 171.5 170.85C235 251.25 191 294.8 -80 405" pathLength="1" stroke="#20221F" stroke-width="1.15" stroke-dasharray="1 1"/>
<path opacity="0.65" d="M-100 -50C214 80 438 155 168 164.15C140 244.55 168 284.75 430 425" pathLength="1" stroke="#20221F" stroke-width="1.15" stroke-dasharray="1 1"/>
<path opacity="0.65" d="M440 -80C126 90 97 150 171.5 170.85C230 251.25 182 294.8 -80 405" pathLength="1" stroke="#20221F" stroke-width="1.15" stroke-dasharray="1 1"/>
<path opacity="0.65" d="M-90 -50C216 80 432 155 168 164.15C145 244.55 177 284.75 430 425" pathLength="1" stroke="#20221F" stroke-width="1.15" stroke-dasharray="1 1"/>
<path opacity="0.65" d="M430 -80C124 90 103 150 171.5 170.85C225 251.25 173 294.8 -80 405" pathLength="1" stroke="#20221F" stroke-width="1.15" stroke-dasharray="1 1"/>
<path opacity="0.95" d="M-80 -50C218 80 426 155 168 164.15C150 244.55 186 284.75 430 425" pathLength="1" stroke="#20221F" stroke-width="1.15" stroke-dasharray="1 1"/>
<path opacity="0.95" d="M420 -80C122 90 109 150 171.5 170.85C220 251.25 164 294.8 -80 405" pathLength="1" stroke="#20221F" stroke-width="1.15" stroke-dasharray="1 1"/>
<path opacity="0.65" d="M-70 -50C220 80 420 155 168 164.15C155 244.55 195 284.75 430 425" pathLength="1" stroke="#20221F" stroke-width="1.15" stroke-dasharray="1 1"/>
<path opacity="0.65" d="M410 -80C120 90 115 150 171.5 170.85C215 251.25 155 294.8 -80 405" pathLength="1" stroke="#20221F" stroke-width="1.15" stroke-dasharray="1 1"/>
<path opacity="0.65" d="M-60 -50C222 80 414 155 168 164.15C160 244.55 204 284.75 430 425" pathLength="1" stroke="#20221F" stroke-width="1.15" stroke-dasharray="1 1"/>
<path opacity="0.65" d="M400 -80C118 90 121 150 171.5 170.85C210 251.25 146 294.8 -80 405" pathLength="1" stroke="#20221F" stroke-width="1.15" stroke-dasharray="1 1"/>
<path opacity="0.65" d="M-50 -50C224 80 408 155 168 164.15C165 244.55 213 284.75 430 425" pathLength="1" stroke="#20221F" stroke-width="1.15" stroke-dasharray="1 1"/>
<path opacity="0.65" d="M390 -80C116 90 127 150 171.5 170.85C205 251.25 137 294.8 -80 405" pathLength="1" stroke="#20221F" stroke-width="1.15" stroke-dasharray="1 1"/>
<path opacity="0.95" d="M-40 -50C226 80 402 155 168 164.15C170 244.55 222 284.75 430 425" pathLength="1" stroke="#20221F" stroke-width="1.15" stroke-dasharray="1 1"/>
<path opacity="0.95" d="M380 -80C114 90 133 150 171.5 170.85C200 251.25 128 294.8 -80 405" pathLength="1" stroke="#20221F" stroke-width="1.15" stroke-dasharray="1 1"/>
<path opacity="0.65" d="M-30 -50C228 80 396 155 168 164.15C175 244.55 231 284.75 430 425" pathLength="1" stroke="#20221F" stroke-width="1.15" stroke-dasharray="1 1"/>
<path opacity="0.65" d="M370 -80C112 90 139 150 171.5 170.85C195 251.25 119 294.8 -80 405" pathLength="1" stroke="#20221F" stroke-width="1.15" stroke-dasharray="1 1"/>
<path opacity="0.65" d="M-20 -50C230 80 390 155 168 164.15C180 244.55 240 284.75 430 425" pathLength="1" stroke="#20221F" stroke-width="1.15" stroke-dasharray="1 1"/>
<path opacity="0.65" d="M360 -80C110 90 145 150 171.5 170.85C190 251.25 110 294.8 -80 405" pathLength="1" stroke="#20221F" stroke-width="1.15" stroke-dasharray="1 1"/>
<path opacity="0.65" d="M-10 -50C232 80 384 155 168 164.15C185 244.55 249 284.75 430 425" pathLength="1" stroke="#20221F" stroke-width="1.15" stroke-dasharray="1 1"/>
<path opacity="0.65" d="M350 -80C108 90 151 150 171.5 170.85C185 251.25 101 294.8 -80 405" pathLength="1" stroke="#20221F" stroke-width="1.15" stroke-dasharray="1 1"/>
<path opacity="0.95" d="M0 -50C234 80 378 155 168 164.15C190 244.55 258 284.75 430 425" pathLength="1" stroke="#20221F" stroke-width="1.15" stroke-dasharray="1 1"/>
<path opacity="0.95" d="M340 -80C106 90 157 150 171.5 170.85C180 251.25 92 294.8 -80 405" pathLength="1" stroke="#20221F" stroke-width="1.15" stroke-dasharray="1 1"/>
<path opacity="0.65" d="M10 -50C236 80 372 155 168 164.15C195 244.55 267 284.75 430 425" pathLength="1" stroke="#20221F" stroke-width="1.15" stroke-dasharray="1 1"/>
<path opacity="0.65" d="M330 -80C104 90 163 150 171.5 170.85C175 251.25 83 294.8 -80 405" pathLength="1" stroke="#20221F" stroke-width="1.15" stroke-dasharray="1 1"/>
<path opacity="0.65" d="M20 -50C238 80 366 155 168 164.15C200 244.55 276 284.75 430 425" pathLength="1" stroke="#20221F" stroke-width="1.15" stroke-dasharray="1 1"/>
<path opacity="0.65" d="M320 -80C102 90 169 150 171.5 170.85C170 251.25 74 294.8 -80 405" pathLength="1" stroke="#20221F" stroke-width="1.15" stroke-dasharray="1 1"/>
<path opacity="0.65" d="M30 -50C240 80 360 155 168 164.15C205 244.55 285 284.75 430 425" pathLength="1" stroke="#20221F" stroke-width="1.15" stroke-dasharray="1 1"/>
<path opacity="0.65" d="M310 -80C100 90 175 150 171.5 170.85C165 251.25 65 294.8 -80 405" pathLength="1" stroke="#20221F" stroke-width="1.15" stroke-dasharray="1 1"/>
<path opacity="0.95" d="M40 -50C242 80 354 155 168 164.15C210 244.55 294 284.75 430 425" pathLength="1" stroke="#20221F" stroke-width="1.15" stroke-dasharray="1 1"/>
<path opacity="0.95" d="M300 -80C98 90 181 150 171.5 170.85C160 251.25 56 294.8 -80 405" pathLength="1" stroke="#20221F" stroke-width="1.15" stroke-dasharray="1 1"/>
<path opacity="0.65" d="M50 -50C244 80 348 155 168 164.15C215 244.55 303 284.75 430 425" pathLength="1" stroke="#20221F" stroke-width="1.15" stroke-dasharray="1 1"/>
<path opacity="0.65" d="M290 -80C96 90 187 150 171.5 170.85C155 251.25 47 294.8 -80 405" pathLength="1" stroke="#20221F" stroke-width="1.15" stroke-dasharray="1 1"/>
<path opacity="0.65" d="M60 -50C246 80 342 155 168 164.15C220 244.55 312 284.75 430 425" pathLength="1" stroke="#20221F" stroke-width="1.15" stroke-dasharray="1 1"/>
<path opacity="0.65" d="M280 -80C94 90 193 150 171.5 170.85C150 251.25 38 294.8 -80 405" pathLength="1" stroke="#20221F" stroke-width="1.15" stroke-dasharray="1 1"/>
<path opacity="0.65" d="M70 -50C248 80 336 155 168 164.15C225 244.55 321 284.75 430 425" pathLength="1" stroke="#20221F" stroke-width="1.15" stroke-dasharray="1 1"/>
<path opacity="0.65" d="M270 -80C92 90 199 150 171.5 170.85C145 251.25 29 294.8 -80 405" pathLength="1" stroke="#20221F" stroke-width="1.15" stroke-dasharray="1 1"/>
<path opacity="0.95" d="M80 -50C250 80 330 155 168 164.15C230 244.55 330 284.75 430 425" pathLength="1" stroke="#20221F" stroke-width="1.15" stroke-dasharray="1 1"/>
<path opacity="0.95" d="M260 -80C90 90 205 150 171.5 170.85C140 251.25 20 294.8 -80 405" pathLength="1" stroke="#20221F" stroke-width="1.15" stroke-dasharray="1 1"/>
<path opacity="0.65" d="M90 -50C252 80 324 155 168 164.15C235 244.55 339 284.75 430 425" pathLength="1" stroke="#20221F" stroke-width="1.15" stroke-dasharray="1 1"/>
<path opacity="0.65" d="M250 -80C88 90 211 150 171.5 170.85C135 251.25 11 294.8 -80 405" pathLength="1" stroke="#20221F" stroke-width="1.15" stroke-dasharray="1 1"/>
<path opacity="0.65" d="M100 -50C254 80 318 155 168 164.15C240 244.55 348 284.75 430 425" pathLength="1" stroke="#20221F" stroke-width="1.15" stroke-dasharray="1 1"/>
<path opacity="0.65" d="M240 -80C86 90 217 150 171.5 170.85C130 251.25 2 294.8 -80 405" pathLength="1" stroke="#20221F" stroke-width="1.15" stroke-dasharray="1 1"/>
<path opacity="0.65" d="M110 -50C256 80 312 155 168 164.15C245 244.55 357 284.75 430 425" pathLength="1" stroke="#20221F" stroke-width="1.15" stroke-dasharray="1 1"/>
<path opacity="0.65" d="M230 -80C84 90 223 150 171.5 170.85C125 251.25 -7 294.8 -80 405" pathLength="1" stroke="#20221F" stroke-width="1.15" stroke-dasharray="1 1"/>
<path opacity="0.95" d="M120 -50C258 80 306 155 168 164.15C250 244.55 366 284.75 430 425" pathLength="1" stroke="#20221F" stroke-width="1.15" stroke-dasharray="1 1"/>
<path opacity="0.95" d="M220 -80C82 90 229 150 171.5 170.85C120 251.25 -16 294.8 -80 405" pathLength="1" stroke="#20221F" stroke-width="1.15" stroke-dasharray="1 1"/>
<path opacity="0.65" d="M130 -50C260 80 300 155 168 164.15C255 244.55 375 284.75 430 425" pathLength="1" stroke="#20221F" stroke-width="1.15" stroke-dasharray="1 1"/>
<path opacity="0.65" d="M210 -80C80 90 235 150 171.5 170.85C115 251.25 -25 294.8 -80 405" pathLength="1" stroke="#20221F" stroke-width="1.15" stroke-dasharray="1 1"/>
<path opacity="0.65" d="M140 -50C262 80 294 155 168 164.15C260 244.55 384 284.75 430 425" pathLength="1" stroke="#20221F" stroke-width="1.15" stroke-dasharray="1 1"/>
<path opacity="0.65" d="M200 -80C78 90 241 150 171.5 170.85C110 251.25 -34 294.8 -80 405" pathLength="1" stroke="#20221F" stroke-width="1.15" stroke-dasharray="1 1"/>
</g>
<defs>
<clipPath id="clip0_119_654">
<rect width="350" height="335" fill="white"/>
</clipPath>
</defs>
</svg>
